<svg version="1" xmlns="http://www.w3.org/2000/svg" width="682.667" height="682.667" viewBox="0 0 512.000000 512.000000"><path d="M292 150.7c-8.5 1.5-21.5 10.3-28.4 19.2-4.5 5.8-8.6 18.3-8.6 26.2 0 2.7.3 2.9 4 2.9 5.7 0 14-3.2 19.7-7.5 11.4-8.7 19.1-23.4 18.9-36.5-.1-4.7-.7-5.2-5.6-4.3zM286.5 201.7c-3.2.7-14.9 4.5-16 5.2-.5.4-3.6 1.5-6.8 2.6-6.6 2.1-8.1 1.9-24.2-3.9-11.1-4-19.1-4.6-28-2.2-25.1 6.7-40.6 30.1-40.5 60.9 0 15.3 2 26.9 7.2 41.5 4.1 11.7 7.7 18.8 15.6 30.7 12.2 18.1 22.9 26.3 33 25.2 4.5-.5 9.5-1.9 13.7-3.8 8.8-3.9 12.4-4.7 20-4.5 6.7.2 9.6.8 17.5 4.1 15.3 6.2 24.8 5 34.4-4.2 4.9-4.8 13-15.7 18.4-24.8 3.8-6.5 10.8-22.4 10-22.9-.2-.2-2.3-1.5-4.7-2.9-27.8-16.2-30.9-56.1-6-76.1 2.7-2.2 4.9-4.2 4.9-4.6 0-.3-1.7-2.6-3.7-5-7.8-9.1-21.2-15.1-34.8-15.5-4.4-.1-8.9 0-10 .2z"/></svg>