<?xml version="1.0"?>
<svg xmlns="http://www.w3.org/2000/svg" height="512px" viewBox="0 0 51 60" width="512px" class=""><g><g id="Page-1" fill="none" fill-rule="evenodd"><g id="031---Charge-Smartwatch" fill="rgb(0,0,0)" fill-rule="nonzero"><path id="Shape" d="m7.18 53h3.02l.578 4.389c.1972766 1.4916525 1.467363 2.6074652 2.972 2.611h20.5c1.5044173-.0017105 2.7749251-1.1174139 2.971-2.609l.579-4.391h3.02c3.9136115.0444845 7.125128-3.0865204 7.18-7v-8c0-.242-.011-.485-.036-.738l-.789-7.262h1.825c1.1045695 0 2-.8954305 2-2v-4c0-1.1045695-.8954305-2-2-2h-2.694l-1.362-12.528c-.3016127-2.57148904-2.4950442-4.5008804-5.084-4.472h-4.989l-1.427-3.216c-.4823804-1.08413595-1.5573911-1.78304963-2.744-1.784h-13.4c-1.1866089.00095037-2.2616196.69986405-2.744 1.784l-1.427 3.216h-4.989c-2.58895578-.0288804-4.78238728 1.90051096-5.084 4.472l-3.021 27.8c-.024.243-.035.486-.035.728v8c.05487204 3.9134796 3.26638853 7.0444845 7.18 7zm27.07 5h-20.5c-.5014099-.0013263-.9243196-.3737776-.989-.871l-1.071-8.129h24.62l-1.072 8.131c-.0655449.496053-.4876383.8673072-.988.869zm14.75-34v4h-2.043l-.434-4zm-32.616-21.4c.158974-.36425542.5185648-.59979524.916-.6h13.4c.3974352.00020476.757026.23574458.916.6l1.066 2.4h-17.364zm-14.36 34.878 3.02-27.79c.19303744-1.55574168 1.52856515-2.71526962 3.096-2.688h31.72c1.5689519-.02933934 2.906808 1.13071138 3.1 2.688l3.019 27.779c.017.178.025.355.025.533-.0006826.652937-.1326303 1.2990728-.388 1.9-.8343292 1.899923-2.7210459 3.1194438-4.796 3.1h-33.64c-2.07003698.0193295-3.95296977-1.1951995-4.789-3.089-.25761049-.6041956-.39060004-1.2541778-.391-1.911 0-.178.008-.355.024-.522zm-.024 5.344c1.36288807 1.3939786 3.23047733 2.1792314 5.18 2.178h33.64c1.9497831.0015361 3.817605-.784175 5.18-2.179v3.179c-.0547336 2.8089391-2.3708818 5.0446034-5.18 5h-2.756l.229-1.739c.0751619-.5710282-.099499-1.1467403-.4792685-1.5797504-.3797695-.43301-.9277779-.6812794-1.5037315-.6812496h-24.62c-.5759781.0002202-1.1238996.2487486-1.503482.6819552-.37958249.4332066-.55397118 1.0090302-.478518 1.5800448l.229 1.738h-2.757c-2.80911822.0446034-5.12526639-2.1910609-5.18-5z" data-original="#000000" class="active-path" data-old_color="#000000" fill="#F9C80E"/><path id="Shape" d="m13.465 25h7.243l-3.135 10.973c-.1908211.6497736.0818156 1.3463749.663 1.694.5759981.3563223 1.3201163.2777559 1.809-.191l15.762-14.886c.4465046-.4221251.5904083-1.0738789.3631556-1.644766s-.7796999-.9454449-1.3941556-.945234h-6.6l1.024-7.638c.0804696-.6064834-.2154537-1.2010612-.7478168-1.5025357-.5323632-.3014746-1.1944689-.2494238-1.6731832.1315357l-14.248 11.335c-.4992543.3970481-.692785 1.0664193-.4824394 1.6686292.2103455.6022099.7785507 1.0055147 1.4164394 1.0053708zm13.583-11.672-.929 6.972c-.0575662.4278685.0720136.8597946.3556 1.1853158s.6936794.5130709 1.1254.5146842h5.914l-13.514 12.771 2.816-9.859c.1293597-.4528549.038517-.9401732-.2453207-1.3160026-.2838376-.3758294-.7277109-.5965283-1.1986793-.5959974h-6.472z" data-original="#000000" class="active-path" data-old_color="#000000" fill="#F9C80E"/></g></g></g> </svg>
